%
M48
M72
T01C0.02756
T02C0.03200
T03C0.03543
T04C0.04000
%
T01
X13300Y87324
X13300Y107009
X28457Y87167
X48143Y87167
T02
X18300Y77167
X18300Y67167
X18300Y57167
X18300Y47167
X48300Y47167
X48300Y57167
X48300Y67167
X48300Y77167
T03
X28300Y107167
X28300Y97167
X38300Y107167
X48300Y107167
T04
X8300Y117167
X18300Y117167
X28300Y117167
X38300Y117167
X48300Y117167
X58300Y117167
X46100Y31067
X46100Y13267
X20500Y13267
X20500Y31067
M30
