G75*
%MOIN*%
%OFA0B0*%
%FSLAX25Y25*%
%IPPOS*%
%LPD*%
%AMOC8*
5,1,8,0,0,1.08239X$1,22.5*
%
%ADD10C,0.00000*%
%ADD11C,0.00800*%
%ADD12C,0.00100*%
%ADD13C,0.00500*%
%ADD14C,0.00600*%
%ADD15C,0.00200*%
D10*
X0003300Y0007167D02*
X0003300Y0122127D01*
X0067001Y0122127D01*
X0067001Y0007167D01*
X0003300Y0007167D01*
D11*
X0038300Y0084667D02*
X0038300Y0089667D01*
X0031300Y0102167D02*
X0028300Y0102167D01*
X0028300Y0103167D01*
X0028300Y0102167D02*
X0028300Y0101167D01*
X0028300Y0102167D02*
X0025300Y0102167D01*
X0025800Y0112167D02*
X0023300Y0114667D01*
X0020800Y0112167D01*
X0015800Y0112167D01*
X0013300Y0114667D01*
X0010800Y0112167D01*
X0005800Y0112167D01*
X0003300Y0114667D01*
X0003300Y0119667D01*
X0005800Y0122167D01*
X0010800Y0122167D01*
X0013300Y0119667D01*
X0015800Y0122167D01*
X0020800Y0122167D01*
X0023300Y0119667D01*
X0025800Y0122167D01*
X0030800Y0122167D01*
X0033300Y0119667D01*
X0035800Y0122167D01*
X0040800Y0122167D01*
X0043300Y0119667D01*
X0045800Y0122167D01*
X0050800Y0122167D01*
X0053300Y0119667D01*
X0055800Y0122167D01*
X0060800Y0122167D01*
X0063300Y0119667D01*
X0063300Y0114667D01*
X0060800Y0112167D01*
X0055800Y0112167D01*
X0053300Y0114667D01*
X0050800Y0112167D01*
X0045800Y0112167D01*
X0043300Y0114667D01*
X0040800Y0112167D01*
X0035800Y0112167D01*
X0033300Y0114667D01*
X0030800Y0112167D01*
X0025800Y0112167D01*
X0015800Y0097167D02*
X0010800Y0097167D01*
X0042300Y0107167D02*
X0043300Y0107167D01*
X0044300Y0107167D01*
X0043300Y0107167D02*
X0043300Y0110167D01*
X0043300Y0107167D02*
X0043300Y0104167D01*
D12*
X0037324Y0093718D02*
X0037324Y0092217D01*
X0037824Y0092217D02*
X0036823Y0092217D01*
X0036351Y0092467D02*
X0036101Y0092217D01*
X0035600Y0092217D01*
X0035350Y0092467D01*
X0035350Y0093468D01*
X0035600Y0093718D01*
X0036101Y0093718D01*
X0036351Y0093468D01*
X0036823Y0093218D02*
X0037324Y0093718D01*
X0008250Y0094467D02*
X0008250Y0094967D01*
X0008000Y0095218D01*
X0008250Y0095690D02*
X0007249Y0096691D01*
X0006999Y0096691D01*
X0006749Y0096441D01*
X0006749Y0095940D01*
X0006999Y0095690D01*
X0006999Y0095218D02*
X0006749Y0094967D01*
X0006749Y0094467D01*
X0006999Y0094217D01*
X0008000Y0094217D01*
X0008250Y0094467D01*
X0008250Y0095690D02*
X0008250Y0096691D01*
D13*
X0007854Y0124617D02*
X0007854Y0129120D01*
X0010106Y0129120D01*
X0010856Y0128370D01*
X0010856Y0126869D01*
X0010106Y0126118D01*
X0007854Y0126118D01*
X0006253Y0129120D02*
X0004751Y0129120D01*
X0005502Y0129120D02*
X0005502Y0125367D01*
X0004751Y0124617D01*
X0004001Y0124617D01*
X0003250Y0125367D01*
X0012458Y0124617D02*
X0015460Y0124617D01*
X0013959Y0124617D02*
X0013959Y0129120D01*
X0012458Y0127619D01*
X0036046Y0071462D02*
X0041150Y0071462D01*
X0041150Y0073163D02*
X0041150Y0069760D01*
X0040299Y0068007D02*
X0036046Y0068007D01*
X0037747Y0069760D02*
X0036046Y0071462D01*
X0040299Y0068007D02*
X0041150Y0067156D01*
X0041150Y0065455D01*
X0040299Y0064604D01*
X0036046Y0064604D01*
X0037093Y0007420D02*
X0036342Y0006670D01*
X0036342Y0005919D01*
X0037093Y0005169D01*
X0038594Y0005169D01*
X0039345Y0004418D01*
X0039345Y0003667D01*
X0038594Y0002917D01*
X0037093Y0002917D01*
X0036342Y0003667D01*
X0037093Y0007420D02*
X0038594Y0007420D01*
X0039345Y0006670D01*
X0040946Y0005919D02*
X0042447Y0007420D01*
X0042447Y0002917D01*
X0040946Y0002917D02*
X0043949Y0002917D01*
D14*
X0041800Y0010167D02*
X0038300Y0010167D01*
X0028300Y0010167D01*
X0024800Y0010167D01*
X0021300Y0018167D02*
X0021300Y0019167D01*
X0020300Y0019167D01*
X0020300Y0025167D01*
X0021300Y0025167D01*
X0021300Y0026167D01*
X0024800Y0034167D02*
X0028800Y0034167D01*
X0038300Y0034167D01*
X0041800Y0034167D01*
X0044800Y0042167D02*
X0021800Y0042167D01*
X0021800Y0082167D01*
X0029300Y0082167D01*
X0029302Y0082041D01*
X0029308Y0081916D01*
X0029318Y0081791D01*
X0029332Y0081666D01*
X0029349Y0081541D01*
X0029371Y0081417D01*
X0029396Y0081294D01*
X0029426Y0081172D01*
X0029459Y0081051D01*
X0029496Y0080931D01*
X0029536Y0080812D01*
X0029581Y0080695D01*
X0029629Y0080578D01*
X0029681Y0080464D01*
X0029736Y0080351D01*
X0029795Y0080240D01*
X0029857Y0080131D01*
X0029923Y0080024D01*
X0029992Y0079919D01*
X0030064Y0079816D01*
X0030139Y0079715D01*
X0030218Y0079617D01*
X0030300Y0079522D01*
X0030384Y0079429D01*
X0030472Y0079339D01*
X0030562Y0079251D01*
X0030655Y0079167D01*
X0030750Y0079085D01*
X0030848Y0079006D01*
X0030949Y0078931D01*
X0031052Y0078859D01*
X0031157Y0078790D01*
X0031264Y0078724D01*
X0031373Y0078662D01*
X0031484Y0078603D01*
X0031597Y0078548D01*
X0031711Y0078496D01*
X0031828Y0078448D01*
X0031945Y0078403D01*
X0032064Y0078363D01*
X0032184Y0078326D01*
X0032305Y0078293D01*
X0032427Y0078263D01*
X0032550Y0078238D01*
X0032674Y0078216D01*
X0032799Y0078199D01*
X0032924Y0078185D01*
X0033049Y0078175D01*
X0033174Y0078169D01*
X0033300Y0078167D01*
X0033426Y0078169D01*
X0033551Y0078175D01*
X0033676Y0078185D01*
X0033801Y0078199D01*
X0033926Y0078216D01*
X0034050Y0078238D01*
X0034173Y0078263D01*
X0034295Y0078293D01*
X0034416Y0078326D01*
X0034536Y0078363D01*
X0034655Y0078403D01*
X0034772Y0078448D01*
X0034889Y0078496D01*
X0035003Y0078548D01*
X0035116Y0078603D01*
X0035227Y0078662D01*
X0035336Y0078724D01*
X0035443Y0078790D01*
X0035548Y0078859D01*
X0035651Y0078931D01*
X0035752Y0079006D01*
X0035850Y0079085D01*
X0035945Y0079167D01*
X0036038Y0079251D01*
X0036128Y0079339D01*
X0036216Y0079429D01*
X0036300Y0079522D01*
X0036382Y0079617D01*
X0036461Y0079715D01*
X0036536Y0079816D01*
X0036608Y0079919D01*
X0036677Y0080024D01*
X0036743Y0080131D01*
X0036805Y0080240D01*
X0036864Y0080351D01*
X0036919Y0080464D01*
X0036971Y0080578D01*
X0037019Y0080695D01*
X0037064Y0080812D01*
X0037104Y0080931D01*
X0037141Y0081051D01*
X0037174Y0081172D01*
X0037204Y0081294D01*
X0037229Y0081417D01*
X0037251Y0081541D01*
X0037268Y0081666D01*
X0037282Y0081791D01*
X0037292Y0081916D01*
X0037298Y0082041D01*
X0037300Y0082167D01*
X0044800Y0082167D01*
X0044800Y0042167D01*
X0045300Y0026167D02*
X0045300Y0025167D01*
X0046300Y0025167D01*
X0046300Y0019167D01*
X0045300Y0019167D01*
X0045300Y0018167D01*
X0032300Y0022167D02*
X0032302Y0022230D01*
X0032308Y0022292D01*
X0032318Y0022354D01*
X0032331Y0022416D01*
X0032349Y0022476D01*
X0032370Y0022535D01*
X0032395Y0022593D01*
X0032424Y0022649D01*
X0032456Y0022703D01*
X0032491Y0022755D01*
X0032529Y0022804D01*
X0032571Y0022852D01*
X0032615Y0022896D01*
X0032663Y0022938D01*
X0032712Y0022976D01*
X0032764Y0023011D01*
X0032818Y0023043D01*
X0032874Y0023072D01*
X0032932Y0023097D01*
X0032991Y0023118D01*
X0033051Y0023136D01*
X0033113Y0023149D01*
X0033175Y0023159D01*
X0033237Y0023165D01*
X0033300Y0023167D01*
X0033363Y0023165D01*
X0033425Y0023159D01*
X0033487Y0023149D01*
X0033549Y0023136D01*
X0033609Y0023118D01*
X0033668Y0023097D01*
X0033726Y0023072D01*
X0033782Y0023043D01*
X0033836Y0023011D01*
X0033888Y0022976D01*
X0033937Y0022938D01*
X0033985Y0022896D01*
X0034029Y0022852D01*
X0034071Y0022804D01*
X0034109Y0022755D01*
X0034144Y0022703D01*
X0034176Y0022649D01*
X0034205Y0022593D01*
X0034230Y0022535D01*
X0034251Y0022476D01*
X0034269Y0022416D01*
X0034282Y0022354D01*
X0034292Y0022292D01*
X0034298Y0022230D01*
X0034300Y0022167D01*
X0034298Y0022104D01*
X0034292Y0022042D01*
X0034282Y0021980D01*
X0034269Y0021918D01*
X0034251Y0021858D01*
X0034230Y0021799D01*
X0034205Y0021741D01*
X0034176Y0021685D01*
X0034144Y0021631D01*
X0034109Y0021579D01*
X0034071Y0021530D01*
X0034029Y0021482D01*
X0033985Y0021438D01*
X0033937Y0021396D01*
X0033888Y0021358D01*
X0033836Y0021323D01*
X0033782Y0021291D01*
X0033726Y0021262D01*
X0033668Y0021237D01*
X0033609Y0021216D01*
X0033549Y0021198D01*
X0033487Y0021185D01*
X0033425Y0021175D01*
X0033363Y0021169D01*
X0033300Y0021167D01*
X0033237Y0021169D01*
X0033175Y0021175D01*
X0033113Y0021185D01*
X0033051Y0021198D01*
X0032991Y0021216D01*
X0032932Y0021237D01*
X0032874Y0021262D01*
X0032818Y0021291D01*
X0032764Y0021323D01*
X0032712Y0021358D01*
X0032663Y0021396D01*
X0032615Y0021438D01*
X0032571Y0021482D01*
X0032529Y0021530D01*
X0032491Y0021579D01*
X0032456Y0021631D01*
X0032424Y0021685D01*
X0032395Y0021741D01*
X0032370Y0021799D01*
X0032349Y0021858D01*
X0032331Y0021918D01*
X0032318Y0021980D01*
X0032308Y0022042D01*
X0032302Y0022104D01*
X0032300Y0022167D01*
X0026300Y0022167D02*
X0026302Y0022339D01*
X0026308Y0022510D01*
X0026319Y0022682D01*
X0026334Y0022853D01*
X0026353Y0023024D01*
X0026376Y0023194D01*
X0026403Y0023364D01*
X0026435Y0023533D01*
X0026470Y0023701D01*
X0026510Y0023868D01*
X0026554Y0024034D01*
X0026601Y0024199D01*
X0026653Y0024363D01*
X0026709Y0024525D01*
X0026769Y0024686D01*
X0026833Y0024846D01*
X0026901Y0025004D01*
X0026972Y0025160D01*
X0027047Y0025314D01*
X0027127Y0025467D01*
X0027209Y0025617D01*
X0027296Y0025766D01*
X0027386Y0025912D01*
X0027480Y0026056D01*
X0027577Y0026198D01*
X0027678Y0026337D01*
X0027782Y0026474D01*
X0027889Y0026608D01*
X0028000Y0026739D01*
X0028113Y0026868D01*
X0028230Y0026994D01*
X0028350Y0027117D01*
X0028473Y0027237D01*
X0028599Y0027354D01*
X0028728Y0027467D01*
X0028859Y0027578D01*
X0028993Y0027685D01*
X0029130Y0027789D01*
X0029269Y0027890D01*
X0029411Y0027987D01*
X0029555Y0028081D01*
X0029701Y0028171D01*
X0029850Y0028258D01*
X0030000Y0028340D01*
X0030153Y0028420D01*
X0030307Y0028495D01*
X0030463Y0028566D01*
X0030621Y0028634D01*
X0030781Y0028698D01*
X0030942Y0028758D01*
X0031104Y0028814D01*
X0031268Y0028866D01*
X0031433Y0028913D01*
X0031599Y0028957D01*
X0031766Y0028997D01*
X0031934Y0029032D01*
X0032103Y0029064D01*
X0032273Y0029091D01*
X0032443Y0029114D01*
X0032614Y0029133D01*
X0032785Y0029148D01*
X0032957Y0029159D01*
X0033128Y0029165D01*
X0033300Y0029167D01*
X0033472Y0029165D01*
X0033643Y0029159D01*
X0033815Y0029148D01*
X0033986Y0029133D01*
X0034157Y0029114D01*
X0034327Y0029091D01*
X0034497Y0029064D01*
X0034666Y0029032D01*
X0034834Y0028997D01*
X0035001Y0028957D01*
X0035167Y0028913D01*
X0035332Y0028866D01*
X0035496Y0028814D01*
X0035658Y0028758D01*
X0035819Y0028698D01*
X0035979Y0028634D01*
X0036137Y0028566D01*
X0036293Y0028495D01*
X0036447Y0028420D01*
X0036600Y0028340D01*
X0036750Y0028258D01*
X0036899Y0028171D01*
X0037045Y0028081D01*
X0037189Y0027987D01*
X0037331Y0027890D01*
X0037470Y0027789D01*
X0037607Y0027685D01*
X0037741Y0027578D01*
X0037872Y0027467D01*
X0038001Y0027354D01*
X0038127Y0027237D01*
X0038250Y0027117D01*
X0038370Y0026994D01*
X0038487Y0026868D01*
X0038600Y0026739D01*
X0038711Y0026608D01*
X0038818Y0026474D01*
X0038922Y0026337D01*
X0039023Y0026198D01*
X0039120Y0026056D01*
X0039214Y0025912D01*
X0039304Y0025766D01*
X0039391Y0025617D01*
X0039473Y0025467D01*
X0039553Y0025314D01*
X0039628Y0025160D01*
X0039699Y0025004D01*
X0039767Y0024846D01*
X0039831Y0024686D01*
X0039891Y0024525D01*
X0039947Y0024363D01*
X0039999Y0024199D01*
X0040046Y0024034D01*
X0040090Y0023868D01*
X0040130Y0023701D01*
X0040165Y0023533D01*
X0040197Y0023364D01*
X0040224Y0023194D01*
X0040247Y0023024D01*
X0040266Y0022853D01*
X0040281Y0022682D01*
X0040292Y0022510D01*
X0040298Y0022339D01*
X0040300Y0022167D01*
X0040298Y0021995D01*
X0040292Y0021824D01*
X0040281Y0021652D01*
X0040266Y0021481D01*
X0040247Y0021310D01*
X0040224Y0021140D01*
X0040197Y0020970D01*
X0040165Y0020801D01*
X0040130Y0020633D01*
X0040090Y0020466D01*
X0040046Y0020300D01*
X0039999Y0020135D01*
X0039947Y0019971D01*
X0039891Y0019809D01*
X0039831Y0019648D01*
X0039767Y0019488D01*
X0039699Y0019330D01*
X0039628Y0019174D01*
X0039553Y0019020D01*
X0039473Y0018867D01*
X0039391Y0018717D01*
X0039304Y0018568D01*
X0039214Y0018422D01*
X0039120Y0018278D01*
X0039023Y0018136D01*
X0038922Y0017997D01*
X0038818Y0017860D01*
X0038711Y0017726D01*
X0038600Y0017595D01*
X0038487Y0017466D01*
X0038370Y0017340D01*
X0038250Y0017217D01*
X0038127Y0017097D01*
X0038001Y0016980D01*
X0037872Y0016867D01*
X0037741Y0016756D01*
X0037607Y0016649D01*
X0037470Y0016545D01*
X0037331Y0016444D01*
X0037189Y0016347D01*
X0037045Y0016253D01*
X0036899Y0016163D01*
X0036750Y0016076D01*
X0036600Y0015994D01*
X0036447Y0015914D01*
X0036293Y0015839D01*
X0036137Y0015768D01*
X0035979Y0015700D01*
X0035819Y0015636D01*
X0035658Y0015576D01*
X0035496Y0015520D01*
X0035332Y0015468D01*
X0035167Y0015421D01*
X0035001Y0015377D01*
X0034834Y0015337D01*
X0034666Y0015302D01*
X0034497Y0015270D01*
X0034327Y0015243D01*
X0034157Y0015220D01*
X0033986Y0015201D01*
X0033815Y0015186D01*
X0033643Y0015175D01*
X0033472Y0015169D01*
X0033300Y0015167D01*
X0033128Y0015169D01*
X0032957Y0015175D01*
X0032785Y0015186D01*
X0032614Y0015201D01*
X0032443Y0015220D01*
X0032273Y0015243D01*
X0032103Y0015270D01*
X0031934Y0015302D01*
X0031766Y0015337D01*
X0031599Y0015377D01*
X0031433Y0015421D01*
X0031268Y0015468D01*
X0031104Y0015520D01*
X0030942Y0015576D01*
X0030781Y0015636D01*
X0030621Y0015700D01*
X0030463Y0015768D01*
X0030307Y0015839D01*
X0030153Y0015914D01*
X0030000Y0015994D01*
X0029850Y0016076D01*
X0029701Y0016163D01*
X0029555Y0016253D01*
X0029411Y0016347D01*
X0029269Y0016444D01*
X0029130Y0016545D01*
X0028993Y0016649D01*
X0028859Y0016756D01*
X0028728Y0016867D01*
X0028599Y0016980D01*
X0028473Y0017097D01*
X0028350Y0017217D01*
X0028230Y0017340D01*
X0028113Y0017466D01*
X0028000Y0017595D01*
X0027889Y0017726D01*
X0027782Y0017860D01*
X0027678Y0017997D01*
X0027577Y0018136D01*
X0027480Y0018278D01*
X0027386Y0018422D01*
X0027296Y0018568D01*
X0027209Y0018717D01*
X0027127Y0018867D01*
X0027047Y0019020D01*
X0026972Y0019174D01*
X0026901Y0019330D01*
X0026833Y0019488D01*
X0026769Y0019648D01*
X0026709Y0019809D01*
X0026653Y0019971D01*
X0026601Y0020135D01*
X0026554Y0020300D01*
X0026510Y0020466D01*
X0026470Y0020633D01*
X0026435Y0020801D01*
X0026403Y0020970D01*
X0026376Y0021140D01*
X0026353Y0021310D01*
X0026334Y0021481D01*
X0026319Y0021652D01*
X0026308Y0021824D01*
X0026302Y0021995D01*
X0026300Y0022167D01*
X0022933Y0092734D02*
X0023500Y0093301D01*
X0023500Y0094436D01*
X0022933Y0095003D01*
X0022366Y0095003D01*
X0021799Y0094436D01*
X0021799Y0093868D01*
X0021799Y0094436D02*
X0021231Y0095003D01*
X0020664Y0095003D01*
X0020097Y0094436D01*
X0020097Y0093301D01*
X0020664Y0092734D01*
X0020664Y0096417D02*
X0020097Y0096984D01*
X0020097Y0098119D01*
X0020664Y0098686D01*
X0021231Y0098686D01*
X0021799Y0098119D01*
X0022366Y0098686D01*
X0022933Y0098686D01*
X0023500Y0098119D01*
X0023500Y0096984D01*
X0022933Y0096417D01*
X0021799Y0097552D02*
X0021799Y0098119D01*
X0022933Y0100100D02*
X0020664Y0102369D01*
X0022933Y0102369D01*
X0023500Y0101802D01*
X0023500Y0100668D01*
X0022933Y0100100D01*
X0020664Y0100100D01*
X0020097Y0100668D01*
X0020097Y0101802D01*
X0020664Y0102369D01*
X0020097Y0103784D02*
X0020097Y0105485D01*
X0020664Y0106052D01*
X0021799Y0106052D01*
X0022366Y0105485D01*
X0022366Y0103784D01*
X0022366Y0104918D02*
X0023500Y0106052D01*
X0023500Y0103784D02*
X0020097Y0103784D01*
X0033597Y0104351D02*
X0034164Y0103784D01*
X0033597Y0104351D02*
X0033597Y0105485D01*
X0034164Y0106052D01*
X0034731Y0106052D01*
X0037000Y0103784D01*
X0037000Y0106052D01*
X0037000Y0102369D02*
X0035866Y0101235D01*
X0035866Y0101802D02*
X0035299Y0102369D01*
X0034164Y0102369D01*
X0033597Y0101802D01*
X0033597Y0100100D01*
X0037000Y0100100D01*
X0035866Y0100100D02*
X0035866Y0101802D01*
X0038600Y0101235D02*
X0039734Y0102370D01*
X0039734Y0098967D01*
X0038600Y0098967D02*
X0040869Y0098967D01*
X0042283Y0099534D02*
X0044552Y0101802D01*
X0044552Y0099534D01*
X0043985Y0098967D01*
X0042850Y0098967D01*
X0042283Y0099534D01*
X0042283Y0101802D01*
X0042850Y0102370D01*
X0043985Y0102370D01*
X0044552Y0101802D01*
X0045966Y0102370D02*
X0045966Y0098967D01*
X0045966Y0100101D02*
X0047668Y0101235D01*
X0045966Y0100101D02*
X0047668Y0098967D01*
X0044552Y0112467D02*
X0042283Y0112467D01*
X0043417Y0112467D02*
X0043417Y0115870D01*
X0042283Y0114735D01*
X0040869Y0114168D02*
X0040301Y0113601D01*
X0038600Y0113601D01*
X0038600Y0112467D02*
X0038600Y0115870D01*
X0040301Y0115870D01*
X0040869Y0115302D01*
X0040869Y0114168D01*
X0039734Y0113601D02*
X0040869Y0112467D01*
D15*
X0038300Y0034167D02*
X0038300Y0033167D01*
X0028800Y0033167D01*
X0028800Y0034167D01*
X0028300Y0011167D02*
X0028300Y0010167D01*
X0028300Y0011167D02*
X0038300Y0011167D01*
X0038300Y0010167D01*
M02*
